<?xml version="1.0" encoding="utf-8"?>
<!DOCTYPE svg PUBLIC "-//W3C//DTD SVG 20010904//EN" "http://www.w3.org/TR/2001/REC-SVG-20010904/DTD/svg10.dtd">
<svg version="1.0" xmlns="http://www.w3.org/2000/svg" width="340pt" height="129pt" viewBox="0 0 340 129" style="" preserveAspectRatio="xMidYMid meet">
<g fill="#FFC201FF" stroke="#FFC201FF">
<path d="M 8.667 19.667 C 8.300 20.033 8.000 42.758 8.000 70.167 L 8.000 120.000 51.500 120.000 L 95.000 120.000 95.000 109.000 L 95.000 98.000 110.000 98.000 L 125.000 98.000 125.000 58.500 L 125.000 19.000 67.167 19.000 C 35.358 19.000 9.033 19.300 8.667 19.667 M 108.000 43.500 L 108.000 47.000 66.500 47.000 L 25.000 47.000 25.000 43.500 L 25.000 40.000 66.500 40.000 L 108.000 40.000 108.000 43.500 M 108.000 62.511 L 108.000 66.022 66.750 65.761 L 25.500 65.500 25.187 62.250 L 24.873 59.000 66.437 59.000 L 108.000 59.000 108.000 62.511 M 85.000 80.500 L 85.000 84.000 55.000 84.000 L 25.000 84.000 25.000 80.500 L 25.000 77.000 55.000 77.000 L 85.000 77.000 85.000 80.500 "/></g>
<g fill="#FFFFFFFF" stroke="#FFFFFFFF">
<path d="M 252.000 60.000 L 252.000 83.000 256.956 83.000 L 261.912 83.000 262.206 75.801 L 262.500 68.603 268.500 75.763 L 274.500 82.924 280.244 82.712 L 285.987 82.500 278.994 74.335 C 275.147 69.844 272.000 65.883 272.000 65.532 C 272.000 64.731 283.184 50.839 283.521 51.220 C 284.494 52.321 296.000 81.700 296.000 83.085 C 296.000 84.047 295.100 86.934 294.000 89.500 C 292.900 92.066 292.000 94.579 292.000 95.083 C 292.000 95.587 294.138 95.995 296.750 95.989 L 301.500 95.978 310.750 72.729 C 315.838 59.943 320.000 49.124 320.000 48.688 C 320.000 48.252 317.643 48.031 314.763 48.198 L 309.525 48.500 305.622 59.276 C 303.476 65.203 301.595 69.928 301.444 69.776 C 301.293 69.624 299.400 64.775 297.239 59.000 L 293.309 48.500 283.796 48.215 L 274.283 47.931 268.392 55.136 L 262.500 62.341 262.220 49.670 L 261.940 37.000 256.970 37.000 L 252.000 37.000 252.000 60.000 "/></g>
<g fill="#FFFFFFFF" stroke="#FFFFFFFF">
<path d="M 141.778 39.203 C 135.346 42.932 133.232 50.588 136.950 56.686 C 139.415 60.728 141.618 61.903 151.500 64.443 C 159.302 66.449 159.508 66.580 159.813 69.751 C 160.076 72.479 159.704 73.162 157.498 74.001 C 152.700 75.825 149.044 75.197 145.846 72.000 C 143.417 69.571 142.004 69.000 138.423 69.000 C 134.373 69.000 134.000 69.211 134.000 71.497 C 134.000 75.345 140.171 81.508 145.525 83.007 C 154.879 85.626 166.251 82.283 169.524 75.953 C 173.692 67.893 169.819 60.203 160.188 57.418 C 149.995 54.470 147.735 53.526 146.614 51.750 C 144.770 48.827 147.043 46.544 152.135 46.204 C 155.807 45.959 156.975 46.344 158.957 48.454 C 161.960 51.651 170.003 52.231 169.996 49.250 C 169.990 46.410 166.266 41.133 162.759 38.995 C 158.058 36.128 146.891 36.240 141.778 39.203 "/></g>
<g fill="#FFFFFFFF" stroke="#FFFFFFFF">
<path d="M 221.952 50.253 C 216.868 53.679 214.758 58.077 214.689 65.391 C 214.611 73.661 217.129 78.614 222.985 81.710 C 231.282 86.098 241.630 83.562 245.816 76.114 C 247.017 73.976 248.000 71.951 248.000 71.614 C 248.000 71.276 245.820 71.000 243.155 71.000 C 239.580 71.000 237.836 71.524 236.500 73.000 C 234.344 75.382 230.286 75.589 227.262 73.471 C 222.525 70.153 223.587 59.242 228.860 57.058 C 231.958 55.775 235.713 56.744 237.914 59.396 C 239.316 61.086 246.473 61.662 247.401 60.160 C 248.327 58.663 244.385 52.560 241.001 50.250 C 236.341 47.069 226.674 47.071 221.952 50.253 "/></g>
<g fill="#FFFFFFFF" stroke="#FFFFFFFF">
<path d="M 178.986 41.250 C 178.958 45.869 177.846 47.881 175.148 48.193 C 172.806 48.465 172.465 48.990 172.193 52.750 C 171.893 56.890 171.964 57.000 174.943 57.000 L 178.000 57.000 178.000 67.077 C 178.000 76.881 178.079 77.233 180.923 80.077 C 183.512 82.666 184.540 83.000 189.923 83.000 L 196.000 83.000 196.000 78.560 C 196.000 74.152 195.974 74.119 192.250 73.810 L 188.500 73.500 188.210 65.250 L 187.919 57.000 191.960 57.000 L 196.000 57.000 196.000 52.500 L 196.000 48.000 192.000 48.000 L 188.000 48.000 188.000 43.500 L 188.000 39.000 183.500 39.000 C 179.504 39.000 178.998 39.252 178.986 41.250 "/></g>
<g fill="#E38F01FF" stroke="#E38F01FF">
<path d="M 25.384 41.442 C 25.080 42.234 24.987 43.697 25.179 44.692 C 25.507 46.396 27.894 46.515 66.764 46.761 L 108.000 47.022 108.000 43.511 L 108.000 40.000 66.969 40.000 C 32.158 40.000 25.853 40.219 25.384 41.442 "/></g>
<g fill="#E38F01FF" stroke="#E38F01FF">
<path d="M 25.000 62.000 L 25.000 65.000 66.500 65.000 L 108.000 65.000 108.000 62.000 L 108.000 59.000 66.500 59.000 L 25.000 59.000 25.000 62.000 "/></g>
<g fill="#E38F01FF" stroke="#E38F01FF">
<path d="M 25.667 77.667 C 25.300 78.033 25.000 79.608 25.000 81.167 L 25.000 84.000 55.000 84.000 L 85.000 84.000 85.000 80.500 L 85.000 77.000 55.667 77.000 C 39.533 77.000 26.033 77.300 25.667 77.667 "/></g>
<g fill="#FDF5ABFF" stroke="#FDF5ABFF">
<path d="M 96.000 109.000 L 96.000 119.000 99.769 119.000 C 103.212 119.000 104.399 118.135 113.500 109.000 L 123.462 99.000 109.731 99.000 L 96.000 99.000 96.000 109.000 "/></g>
<g fill="#FFFFFFFF" stroke="#FFFFFFFF">
<path d="M 200.000 65.500 L 200.000 83.000 205.000 83.000 L 210.000 83.000 210.000 65.500 L 210.000 48.000 205.000 48.000 L 200.000 48.000 200.000 65.500 "/></g>
<g fill="#FFFFFFFF" stroke="#FFFFFFFF">
<path d="M 150.000 103.000 C 145.623 107.377 148.849 115.333 155.000 115.333 C 157.240 115.333 158.909 114.596 160.156 113.056 C 164.139 108.136 161.088 101.000 155.000 101.000 C 153.333 101.000 151.111 101.889 150.000 103.000 M 158.000 106.000 C 159.384 108.586 157.677 112.000 155.000 112.000 C 153.939 112.000 152.589 111.100 152.000 110.000 C 150.616 107.414 152.323 104.000 155.000 104.000 C 156.061 104.000 157.411 104.900 158.000 106.000 "/></g>
<g fill="#FFFFFFFF" stroke="#FFFFFFFF">
<path d="M 133.000 108.000 C 133.000 114.333 133.190 115.000 135.000 115.000 C 136.643 115.000 137.000 114.333 137.000 111.268 L 137.000 107.536 139.536 111.268 C 143.532 117.149 145.000 116.271 145.000 108.000 C 145.000 102.575 144.676 101.000 143.560 101.000 C 142.619 101.000 142.013 102.297 141.810 104.750 L 141.500 108.500 139.168 104.750 C 137.788 102.530 136.054 101.000 134.918 101.000 C 133.210 101.000 133.000 101.766 133.000 108.000 "/></g>
<g fill="#FFFFFFFF" stroke="#FFFFFFFF">
<path d="M 190.040 102.452 C 188.129 104.754 189.228 107.379 192.751 108.930 C 194.538 109.717 196.000 110.730 196.000 111.180 C 196.000 112.342 193.242 112.200 192.500 111.000 C 191.561 109.481 189.000 109.806 189.000 111.443 C 189.000 112.996 192.699 116.000 194.612 116.000 C 195.253 116.000 196.785 115.185 198.016 114.188 C 200.911 111.844 200.005 108.659 195.967 106.986 C 192.820 105.683 191.993 104.000 194.500 104.000 C 195.325 104.000 196.000 104.450 196.000 105.000 C 196.000 105.550 196.675 106.000 197.500 106.000 C 199.300 106.000 199.469 103.869 197.800 102.200 C 196.143 100.543 191.499 100.694 190.040 102.452 "/></g>
<g fill="#FFFFFFFF" stroke="#FFFFFFFF">
<path d="M 177.000 108.000 L 177.000 115.000 182.000 115.000 C 185.778 115.000 187.000 114.633 187.000 113.500 C 187.000 112.452 185.944 112.000 183.500 112.000 C 181.575 112.000 180.000 111.550 180.000 111.000 C 180.000 110.450 181.350 110.000 183.000 110.000 C 185.333 110.000 186.000 109.556 186.000 108.000 C 186.000 106.444 185.333 106.000 183.000 106.000 C 181.350 106.000 180.000 105.550 180.000 105.000 C 180.000 104.450 181.575 104.000 183.500 104.000 C 185.944 104.000 187.000 103.548 187.000 102.500 C 187.000 101.367 185.778 101.000 182.000 101.000 L 177.000 101.000 177.000 108.000 "/></g>
<g fill="#FFFFFFFF" stroke="#FFFFFFFF">
<path d="M 201.655 35.829 C 199.719 37.968 199.484 42.084 201.200 43.800 C 203.189 45.789 207.728 45.226 209.443 42.777 C 211.501 39.840 211.407 38.407 209.000 36.000 C 206.509 33.509 203.811 33.446 201.655 35.829 "/></g>
<g fill="#FFFFFFFF" stroke="#FFFFFFFF">
<path d="M 163.000 102.500 C 163.000 103.333 163.889 104.000 165.000 104.000 C 166.758 104.000 167.000 104.667 167.000 109.500 C 167.000 114.333 167.242 115.000 169.000 115.000 C 170.758 115.000 171.000 114.333 171.000 109.500 C 171.000 104.667 171.242 104.000 173.000 104.000 C 174.111 104.000 175.000 103.333 175.000 102.500 C 175.000 101.333 173.667 101.000 169.000 101.000 C 164.333 101.000 163.000 101.333 163.000 102.500 "/></g>
<g fill="#FDDF64FF" stroke="#FDDF64FF">
<path d="M 95.429 99.325 C 95.149 100.054 95.070 104.891 95.253 110.075 L 95.585 119.500 95.792 109.277 L 96.000 99.055 110.250 98.748 L 124.500 98.441 110.219 98.220 C 99.127 98.049 95.824 98.296 95.429 99.325 "/></g>
</svg>
